<?xml version="1.0" encoding="UTF-8" standalone="no"?>
<!DOCTYPE svg PUBLIC "-//W3C//DTD SVG 1.1//EN" "http://www.w3.org/Graphics/SVG/1.1/DTD/svg11.dtd">
<svg width="100%" height="100%" viewBox="0 0 38 37" version="1.1" xmlns="http://www.w3.org/2000/svg" xmlns:xlink="http://www.w3.org/1999/xlink" xml:space="preserve" xmlns:serif="http://www.serif.com/" style="fill-rule:evenodd;clip-rule:evenodd;stroke-linejoin:round;stroke-miterlimit:1.41421;">
    <g transform="matrix(1,0,0,1,-170,-28.0721)">
        <g transform="matrix(1,0,0,2.34915,0,0)">
            <g transform="matrix(0.695644,0,0,0.296126,51.2575,4.8478)">
                <path d="M193.614,29.135C193.539,28.82 193.502,28.497 193.502,28.173C193.502,25.861 195.379,23.983 197.691,23.983C200.004,23.983 201.881,25.861 201.881,28.173C201.881,28.497 201.843,28.82 201.769,29.135L199.621,38.238C199.17,40.152 200.109,42.122 201.881,42.975C203.652,43.828 205.779,43.334 206.993,41.788L212.771,34.433C212.971,34.179 213.2,33.948 213.453,33.746C215.261,32.304 217.899,32.602 219.341,34.409C220.783,36.217 220.486,38.855 218.678,40.297C218.425,40.499 218.149,40.671 217.856,40.809L209.4,44.806C207.622,45.646 206.668,47.609 207.105,49.526C207.543,51.443 209.254,52.798 211.22,52.783L220.573,52.715C220.897,52.712 221.22,52.748 221.536,52.82C223.79,53.334 225.203,55.582 224.688,57.836C224.174,60.091 221.926,61.503 219.671,60.989C219.356,60.917 219.049,60.808 218.758,60.666L210.362,56.546C208.596,55.68 206.467,56.158 205.241,57.695C204.015,59.232 204.023,61.415 205.26,62.943L211.145,70.213C211.348,70.465 211.522,70.739 211.663,71.031C212.666,73.114 211.789,75.62 209.706,76.624C207.623,77.627 205.117,76.75 204.114,74.667C203.973,74.375 203.867,74.068 203.797,73.751L201.783,64.618C201.359,62.698 199.657,61.331 197.691,61.331C195.725,61.331 194.023,62.698 193.6,64.618L191.586,73.751C191.516,74.068 191.41,74.375 191.269,74.667C190.266,76.75 187.76,77.627 185.676,76.624C183.593,75.62 182.716,73.114 183.72,71.031C183.86,70.739 184.034,70.465 184.238,70.213L190.123,62.943C191.36,61.415 191.368,59.232 190.142,57.695C188.916,56.158 186.786,55.68 185.021,56.546L176.624,60.666C176.333,60.808 176.027,60.917 175.711,60.989C173.457,61.503 171.209,60.091 170.694,57.836C170.18,55.582 171.592,53.334 173.847,52.82C174.162,52.748 174.486,52.712 174.809,52.715L184.162,52.783C186.128,52.798 187.84,51.443 188.277,49.526C188.715,47.609 187.761,45.646 185.983,44.806L177.527,40.809C177.234,40.671 176.958,40.499 176.705,40.297C174.897,38.855 174.6,36.217 176.041,34.409C177.483,32.602 180.121,32.304 181.929,33.746C182.182,33.948 182.411,34.179 182.612,34.433L188.389,41.788C189.604,43.334 191.73,43.828 193.502,42.975C195.273,42.122 196.213,40.152 195.762,38.238L193.614,29.135Z" style="fill:url(#_Radial1);"/>
            </g>
        </g>
    </g>
    <defs>
        <radialGradient id="_Radial1" cx="0" cy="0" r="1" gradientUnits="userSpaceOnUse" gradientTransform="matrix(26.997,0,0,26.997,197.691,50.3034)"><stop offset="0" style="stop-color:rgb(240,177,132);stop-opacity:1"/><stop offset="1" style="stop-color:rgb(255,106,0);stop-opacity:1"/></radialGradient>
    </defs>
</svg>
