<?xml version="1.0" encoding="UTF-8" standalone="no"?>
<!DOCTYPE svg PUBLIC "-//W3C//DTD SVG 1.1//EN" "http://www.w3.org/Graphics/SVG/1.1/DTD/svg11.dtd">
<svg width="100%" height="100%" viewBox="0 0 44 44" version="1.1" xmlns="http://www.w3.org/2000/svg" xmlns:xlink="http://www.w3.org/1999/xlink" xml:space="preserve" xmlns:serif="http://www.serif.com/" style="fill-rule:evenodd;clip-rule:evenodd;stroke-linejoin:round;stroke-miterlimit:1.41421;">
    <g transform="matrix(1,0,0,1,-912.126,-23.7887)">
        <g transform="matrix(1,0,0,3.43245,0,0)">
            <g id="iconfinder_paper-plane-1_430109" transform="matrix(0.443829,0,0,0.129304,933.718,13.2211)">
                <g transform="matrix(1,0,0,1,-64,-64)">
                    <path d="M74.508,108.239C73.736,108.239 73.029,107.794 72.698,107.091L55.835,71.251L20.732,55.116C19.998,54.779 19.539,54.033 19.568,53.225C19.598,52.417 20.111,51.707 20.868,51.425L104.18,20.318C104.909,20.047 105.732,20.222 106.285,20.77C106.84,21.318 107.024,22.139 106.76,22.872L76.389,106.919C76.115,107.68 75.409,108.199 74.601,108.237C74.569,108.238 74.538,108.239 74.508,108.239ZM26.772,53.49L58.168,67.922C58.597,68.119 58.942,68.461 59.143,68.887L74.265,101.026L101.529,25.578L26.772,53.49Z" style="fill-rule:nonzero;"/>
                    <path d="M57.334,71.738C56.822,71.738 56.311,71.543 55.92,71.152C55.139,70.372 55.139,69.105 55.92,68.324L103.465,20.778C104.246,19.997 105.512,19.997 106.293,20.778C107.074,21.559 107.074,22.825 106.293,23.606L58.748,71.152C58.357,71.543 57.846,71.738 57.334,71.738Z" style="fill-rule:nonzero;"/>
                </g>
            </g>
        </g>
    </g>
</svg>
